<svg xmlns="http://www.w3.org/2000/svg" width="51" height="51" viewBox="0 0 51 51">
    <g fill="none" fill-rule="evenodd">
        <path stroke="#235D7B" stroke-width="1.556" d="M43.734 34.83c-8.633 8.547-22.628 8.547-31.26 0a21.732 21.732 0 0 1 0-30.95M28.234 40.923v5.17M42.34 45.906H13.924"/>
        <path stroke="#235D7B" stroke-width="1.556" d="M28.185 35.592c-9.076 0-16.46-7.31-16.46-16.296S19.11 3 28.185 3s16.46 7.31 16.46 16.296-7.384 16.296-16.46 16.296z"/>
        <path fill="#32C5FF" d="M34.486 29.635a2.4 2.4 0 0 1-.31-.019c-1.216-.033-1.926-1.483-2.112-4.312a.95.95 0 0 0-.687-.844c-1.035-.298-1.745-.675-2.112-1.118-.627-.757-1.613-1.428-2.145-1.76a3.461 3.461 0 0 1-1.253-1.366l-.73-1.837a2.344 2.344 0 0 1-.228-1.319c.197-1.677 1.053-3.486 1.62-4.683.189-.4.583-.663 1.028-.684.448-.019.869.2 1.1.58l.626 1.095c.177.292.491.35.725.302.107-.021.458-.124.516-.534l.011-.09a3.537 3.537 0 0 1 2.213-2.872l1.695-.671c.921-.623.23-3.168-.255-4.319a.54.54 0 0 1 .071-.54.556.556 0 0 1 .508-.208l.168.023a.594.594 0 0 1 .157.046c5.804 2.66 9.553 8.467 9.553 14.792 0 .17-.081.331-.22.434l-1.58 1.174a2.045 2.045 0 0 1-1.606.364 2.029 2.029 0 0 1-1.324-.896l-.81-.942-.704 3.753c-.165.74-.265 1.488-.342 2.125-.212 1.778-.814 3.037-1.784 3.742a3.049 3.049 0 0 1-1.789.584"/>
        <path stroke="#235D7B" stroke-linejoin="round" stroke-width="1.556" d="M34.486 29.635a2.4 2.4 0 0 1-.31-.019c-1.216-.033-1.926-1.483-2.112-4.312a.95.95 0 0 0-.687-.844c-1.035-.298-1.745-.675-2.112-1.118-.627-.757-1.613-1.428-2.145-1.76a3.461 3.461 0 0 1-1.253-1.366l-.73-1.837a2.344 2.344 0 0 1-.228-1.319c.197-1.677 1.053-3.486 1.62-4.683.189-.4.583-.663 1.028-.684.448-.019.869.2 1.1.58l.626 1.095c.177.292.491.35.725.302.107-.021.458-.124.516-.534l.011-.09a3.537 3.537 0 0 1 2.213-2.872l1.695-.671c.921-.623.23-3.168-.255-4.319a.54.54 0 0 1 .071-.54.556.556 0 0 1 .508-.208l.168.023a.594.594 0 0 1 .157.046c5.804 2.66 9.553 8.467 9.553 14.792 0 .17-.081.331-.22.434l-1.58 1.174a2.045 2.045 0 0 1-1.606.364 2.029 2.029 0 0 1-1.324-.896l-.81-.942-.704 3.753c-.165.74-.265 1.488-.342 2.125-.212 1.778-.814 3.037-1.784 3.742a3.049 3.049 0 0 1-1.789.584z"/>
        <path fill="#32C5FF" d="M25.07 35.288a.555.555 0 0 1-.107-.01C18.875 34.081 13.9 29.47 12.289 23.53a.541.541 0 0 1 .338-.65l3.474-1.289a2.078 2.078 0 0 1 1.874.223c.57.39.883 1.04.883 1.827v1.078c0 1.054.387 1.649 1.337 2.052l2.23.945a5.687 5.687 0 0 1 1.788 1.2l.439.433a4.686 4.686 0 0 1 1.21 4.627l-.264.918a.548.548 0 0 1-.527.394"/>
        <path stroke="#235D7B" stroke-width="1.556" d="M25.07 35.288a.555.555 0 0 1-.107-.01C18.875 34.081 13.9 29.47 12.289 23.53a.541.541 0 0 1 .338-.65l3.474-1.289a2.078 2.078 0 0 1 1.874.223c.57.39.883 1.04.883 1.827v1.078c0 1.054.387 1.649 1.337 2.052l2.23.945a5.687 5.687 0 0 1 1.788 1.2l.439.433a4.686 4.686 0 0 1 1.21 4.627l-.264.918a.548.548 0 0 1-.527.394z"/>
        <path fill="#32C5FF" d="M12.297 18.994a.549.549 0 0 1-.548-.572c.29-5.425 3.285-10.333 8.011-13.126a.55.55 0 0 1 .707.124c.517.63 1.133 1.64 1.133 2.864v.931c0 .874-.42 1.79-1.151 2.515l-2.086 2.064a.896.896 0 0 0-.22.928 1.99 1.99 0 0 1-1.163 2.482l-4.485 1.753a.537.537 0 0 1-.198.037"/>
        <path stroke="#235D7B" stroke-width="1.556" d="M12.297 18.994a.549.549 0 0 1-.548-.572c.29-5.425 3.285-10.333 8.011-13.126a.55.55 0 0 1 .707.124c.517.63 1.133 1.64 1.133 2.864v.931c0 .874-.42 1.79-1.151 2.515l-2.086 2.064a.896.896 0 0 0-.22.928 1.99 1.99 0 0 1-1.163 2.482l-4.485 1.753a.537.537 0 0 1-.198.037z"/>
    </g>
</svg>
