<svg xmlns="http://www.w3.org/2000/svg" xmlns:xlink="http://www.w3.org/1999/xlink" width="51" height="51" viewBox="0 0 51 51">
    <defs>
        <path id="a" d="M3.035 12.559L5.6 9.995l5.832 5.343 3.819-3.816-5.589-5.59 2.413-2.412L.408.487z"/>
        <path id="c" d="M.395.837a.914.914 0 0 0-.248.857l2.787 12.073a.92.92 0 0 0 .645.679.92.92 0 0 0 .905-.234l1.815-1.815a.447.447 0 0 1 .319-.133c.114 0 .23.044.317.133l4.835 4.833a.915.915 0 0 0 .65.269.915.915 0 0 0 .653-.269l3.715-3.715a.923.923 0 0 0 0-1.303l-4.833-4.833a.448.448 0 0 1 0-.637l1.814-1.816a.92.92 0 1 0-.445-1.55L1.255.59a.923.923 0 0 0-.86.247zm4.093 10.436a.448.448 0 0 1-.315-.332L2.437 3.42a.452.452 0 0 1 .438-.553c.034 0 .068.005.102.012L10.5 4.616a.449.449 0 0 1 .331.314.456.456 0 0 1-.114.444L9.681 6.408a.91.91 0 0 0-.27.651c0 .247.095.479.27.653l4.834 4.834a.448.448 0 0 1 0 .635l-1.775 1.776a.447.447 0 0 1-.32.132.44.44 0 0 1-.317-.132L7.27 10.124a.916.916 0 0 0-.652-.27.909.909 0 0 0-.651.27l-1.036 1.035a.448.448 0 0 1-.443.114z"/>
        <path id="e" d="M.395.837a.914.914 0 0 0-.248.857l2.787 12.073a.92.92 0 0 0 .645.679.92.92 0 0 0 .905-.234l1.815-1.815a.447.447 0 0 1 .319-.133c.114 0 .23.044.317.133l4.835 4.833a.915.915 0 0 0 .65.269.915.915 0 0 0 .653-.269l3.715-3.715a.923.923 0 0 0 0-1.303l-4.833-4.833a.448.448 0 0 1 0-.637l1.814-1.816a.92.92 0 1 0-.445-1.55L1.255.59a.923.923 0 0 0-.86.247zm4.093 10.436a.448.448 0 0 1-.315-.332L2.437 3.42a.452.452 0 0 1 .438-.553c.034 0 .068.005.102.012L10.5 4.616a.449.449 0 0 1 .331.314.456.456 0 0 1-.114.444L9.681 6.408a.91.91 0 0 0-.27.651c0 .247.095.479.27.653l4.834 4.834a.448.448 0 0 1 0 .635l-1.775 1.776a.447.447 0 0 1-.32.132.44.44 0 0 1-.317-.132L7.27 10.124a.916.916 0 0 0-.652-.27.909.909 0 0 0-.651.27l-1.036 1.035a.448.448 0 0 1-.443.114z"/>
        <path id="g" d="M3.035 12.559L5.6 9.995l5.832 5.343 3.819-3.816-5.589-5.59 2.413-2.412L.408.487z"/>
        <path id="i" d="M.395.837a.914.914 0 0 0-.248.857l2.787 12.073a.92.92 0 0 0 .645.679.92.92 0 0 0 .905-.234l1.815-1.815a.447.447 0 0 1 .319-.133c.114 0 .23.044.317.133l4.835 4.833a.915.915 0 0 0 .65.269.915.915 0 0 0 .653-.269l3.715-3.715a.923.923 0 0 0 0-1.303l-4.833-4.833a.448.448 0 0 1 0-.637l1.814-1.816a.92.92 0 1 0-.445-1.55L1.255.59a.923.923 0 0 0-.86.247zm4.093 10.436a.448.448 0 0 1-.315-.332L2.437 3.42a.452.452 0 0 1 .438-.553c.034 0 .068.005.102.012L10.5 4.616a.449.449 0 0 1 .331.314.456.456 0 0 1-.114.444L9.681 6.408a.91.91 0 0 0-.27.651c0 .247.095.479.27.653l4.834 4.834a.448.448 0 0 1 0 .635l-1.775 1.776a.447.447 0 0 1-.32.132.44.44 0 0 1-.317-.132L7.27 10.124a.916.916 0 0 0-.652-.27.909.909 0 0 0-.651.27l-1.036 1.035a.448.448 0 0 1-.443.114z"/>
    </defs>
    <g fill="none" fill-rule="evenodd">
        <path stroke="#235D7B" stroke-width="1.729" d="M.998 16.755h43.72"/>
        <path fill="#235D7B" d="M5.827 12.143a1.165 1.165 0 1 1-2.33 0 1.165 1.165 0 0 1 2.33 0M10 12.143a1.165 1.165 0 1 1-2.33 0 1.165 1.165 0 0 1 2.33 0M14.174 12.143a1.165 1.165 0 1 1-2.33 0 1.165 1.165 0 0 1 2.33 0"/>
        <path fill="#32C5FF" d="M28.65 34.877H16.065a2.862 2.862 0 0 1-2.853-2.854v-3.498a2.862 2.862 0 0 1 2.853-2.854H28.65a2.863 2.863 0 0 1 2.854 2.854v3.498a2.863 2.863 0 0 1-2.854 2.854"/>
        <path stroke="#235D7B" stroke-width="1.729" d="M28.65 34.877H16.065a2.862 2.862 0 0 1-2.853-2.854v-3.498a2.862 2.862 0 0 1 2.853-2.854H28.65a2.863 2.863 0 0 1 2.854 2.854v3.498a2.863 2.863 0 0 1-2.854 2.854z"/>
        <path stroke="#235D7B" stroke-width="1.729" d="M42.016 43.888H3.7a2.843 2.843 0 0 1-2.835-2.834V8.7A2.844 2.844 0 0 1 3.7 5.864h38.317A2.844 2.844 0 0 1 44.851 8.7v32.355a2.843 2.843 0 0 1-2.835 2.834z"/>
        <path fill="#F5F5F7" d="M33.408 32.754l11.667 3.032-2.413 2.413 5.589 5.59-3.819 3.816-5.832-5.344-2.565 2.565z"/>
        <g transform="translate(33 32.267)">
            <mask id="b" fill="#fff">
                <use xlink:href="#a"/>
            </mask>
            <path fill="#F5F5F7" d="M-4.592 20.339h24.843V-4.512H-4.592z" mask="url(#b)"/>
            <path stroke="#F5F5F7" stroke-width="3" d="M-4.592 20.339h24.843V-4.512H-4.592z" mask="url(#b)"/>
        </g>
        <g>
            <path stroke="#F5F5F7" stroke-width="3" d="M33.408 32.754l11.667 3.032-2.413 2.413 5.589 5.59-3.819 3.816-5.832-5.344-2.565 2.565-2.627-12.072"/>
            <path fill="#F5F5F7" d="M46.514 44.448l-1.774 1.775a.448.448 0 0 1-.638 0L39.27 41.39a.915.915 0 0 0-.65-.27.914.914 0 0 0-.653.27l-1.036 1.036a.451.451 0 0 1-.758-.218l-1.736-7.522a.45.45 0 0 1 .54-.54l7.523 1.737c.16.036.286.157.331.314a.453.453 0 0 1-.114.443l-1.036 1.035a.913.913 0 0 0-.27.65c0 .248.096.479.27.653l4.834 4.834a.448.448 0 0 1 0 .636zm-2.56-5.803a.45.45 0 0 1 0-.637l1.814-1.815a.92.92 0 0 0-.444-1.55l-12.07-2.786a.924.924 0 0 0-1.107 1.104l2.786 12.073a.923.923 0 0 0 1.551.445l1.815-1.815a.444.444 0 0 1 .636 0l4.834 4.833a.917.917 0 0 0 .651.269.916.916 0 0 0 .653-.27l3.714-3.714a.922.922 0 0 0 0-1.304l-4.833-4.833z"/>
        </g>
        <g>
            <g transform="translate(32 31.267)">
                <mask id="d" fill="#fff">
                    <use xlink:href="#c"/>
                </mask>
                <path fill="#F5F5F7" d="M-4.876 22.5h26.934V-4.433H-5.876z" mask="url(#d)"/>
            </g>
            <g transform="translate(32 31.267)">
                <mask id="f" fill="#fff">
                    <use xlink:href="#e"/>
                </mask>
                <path stroke="#F5F5F7" stroke-width="3" d="M-4.876 22.5h26.934V-4.433H-5.876z" mask="url(#f)"/>
            </g>
        </g>
        <path stroke="#F5F5F7" stroke-width="3" d="M46.514 44.448l-1.774 1.775a.448.448 0 0 1-.638 0L39.27 41.39a.915.915 0 0 0-.65-.27.914.914 0 0 0-.653.27l-1.036 1.036a.451.451 0 0 1-.758-.218l-1.736-7.522a.45.45 0 0 1 .54-.54l7.523 1.737c.16.036.286.157.331.314a.453.453 0 0 1-.114.443l-1.036 1.035a.913.913 0 0 0-.27.65c0 .248.096.479.27.653l4.834 4.834a.448.448 0 0 1 0 .636zm-2.56-5.803a.45.45 0 0 1 0-.637l1.814-1.815a.92.92 0 0 0-.444-1.55l-12.07-2.786a.924.924 0 0 0-1.107 1.104l2.786 12.073a.923.923 0 0 0 1.551.445l1.815-1.815a.444.444 0 0 1 .636 0l4.834 4.833a.917.917 0 0 0 .651.269.916.916 0 0 0 .653-.27l3.714-3.714a.922.922 0 0 0 0-1.304l-4.833-4.833z"/>
        <g transform="translate(33 32.267)">
            <mask id="h" fill="#fff">
                <use xlink:href="#g"/>
            </mask>
            <path fill="#FFFFFE" d="M-4.592 20.339h24.843V-4.512H-4.592z" mask="url(#h)"/>
        </g>
        <g transform="translate(32 31.267)">
            <mask id="j" fill="#fff">
                <use xlink:href="#i"/>
            </mask>
            <path fill="#235D7B" d="M-4.876 22.5h26.934V-4.433H-5.876z" mask="url(#j)"/>
        </g>
    </g>
</svg>
