<svg xmlns="http://www.w3.org/2000/svg" width="51" height="51" viewBox="0 0 51 51">
    <g fill="none" fill-rule="evenodd">
        <path stroke="#235D7B" stroke-linecap="round" stroke-width="1.729" d="M35.486 21.813h8.602"/>
        <path fill="#32C5FF" d="M33.581 30.442a8.143 8.143 0 1 1-16.286 0 8.143 8.143 0 0 1 16.286 0"/>
        <path stroke="#235D7B" stroke-width="2" d="M33.581 30.442a8.143 8.143 0 1 1-16.286 0 8.143 8.143 0 0 1 16.286 0z"/>
        <path fill="#FFF" d="M27.99 30.442a2.55 2.55 0 1 1-5.102 0 2.55 2.55 0 0 1 5.101 0"/>
        <path stroke="#235D7B" stroke-linecap="round" stroke-width="1.729" d="M27.99 30.442a2.55 2.55 0 1 1-5.102 0 2.55 2.55 0 0 1 5.101 0z"/>
        <path fill="#F5F5F7" d="M30.867 36.613l3.619 7.238-4.524-.905-2.714 3.619-4.524-8.142s2.714 1.809 8.143-1.81"/>
        <path stroke="#235D7B" stroke-linecap="round" stroke-linejoin="round" stroke-width="1.729" d="M30.867 36.613l3.619 7.238-4.524-.905-2.714 3.619-4.524-8.142s2.714 1.809 8.143-1.81z"/>
        <path fill="#F5F5F7" d="M19.105 36.613l-3.62 7.238 4.525-.905 2.714 3.619 4.524-8.142s-2.714 1.809-8.143-1.81"/>
        <path stroke="#235D7B" stroke-linecap="round" stroke-linejoin="round" stroke-width="1.729" d="M19.105 36.613l-3.62 7.238 4.525-.905 2.714 3.619 4.524-8.142s-2.714 1.809-8.143-1.81z"/>
        <path stroke="#235D7B" stroke-linecap="round" stroke-width="1.729" d="M6.84 13.527h37.248M6.84 17.67h37.248M6.486 21.813h7.602M6.522 30.35h5.375M38.553 30.35h5.375M13.908 37.04H3.27a2.414 2.414 0 0 1-2.406-2.406V8.27A2.413 2.413 0 0 1 3.27 5.864H46.7a2.414 2.414 0 0 1 2.407 2.406v26.363A2.414 2.414 0 0 1 46.7 37.04h-9.796"/>
    </g>
</svg>
