<svg xmlns="http://www.w3.org/2000/svg" width="51" height="51" viewBox="0 0 51 51">
    <g fill="none" fill-rule="evenodd">
        <path stroke="#545F7C" stroke-width="1.729" d="M48.118 42.884H2.883c-1.349 0-2.45-1.092-2.45-2.43V11.86c0-1.337 1.101-3.43 2.45-3.43h45.235c1.348 0 2.45 2.093 2.45 3.43v28.595c0 1.338-1.102 2.43-2.45 2.43z"/>
        <path fill="#4DC2F0" d="M43.423 27.437h-8.024a.611.611 0 0 1-.612-.607v-5.06c0-.335.275-.608.612-.608h8.024a.61.61 0 0 1 .612.608v5.06a.61.61 0 0 1-.612.607"/>
        <path stroke="#545F7C" stroke-width="1.729" d="M43.423 27.437h-8.024a.611.611 0 0 1-.612-.607v-5.06c0-.335.275-.608.612-.608h8.024a.61.61 0 0 1 .612.608v5.06a.61.61 0 0 1-.612.607zM5.606 34.054h7.95M15.94 34.054h7.95M26.272 34.054h7.951M36.606 34.054h7.95"/>
        <g>
            <path fill="#FFFFFE" stroke="#545F7C" stroke-width="3.152" d="M10.284 27.514c-1.81 0-3.284-1.46-3.284-3.257C7 22.461 8.473 21 10.284 21c1.81 0 3.284 1.461 3.284 3.257s-1.474 3.257-3.284 3.257z"/>
            <path fill="#32C5FF" d="M10.284 27.514c-1.81 0-3.284-1.46-3.284-3.257C7 22.461 8.473 21 10.284 21c1.81 0 3.284 1.461 3.284 3.257s-1.474 3.257-3.284 3.257z"/>
        </g>
    </g>
</svg>
