<svg xmlns="http://www.w3.org/2000/svg" width="53" height="53" viewBox="0 0 53 53">
    <g fill="none" fill-rule="evenodd" stroke="#235D7B">
        <path fill="#32C5FF" stroke-linejoin="round" stroke-width="1.645" d="M36.83 22.196c0-5.801-4.706-10.502-10.511-10.502-5.806 0-10.513 4.7-10.513 10.502 0 5.801 4.707 10.503 10.513 10.503 5.805 0 10.511-4.702 10.511-10.503z"/>
        <path stroke-width="1.52" d="M27.566 27.988c-1.606.019-3.255-.376-4.547-1.367-2.282-1.753-2.681-5.249-1.395-7.78 1.19-2.342 3.838-3.487 6.284-2.938 2.374.532 4.138 2.665 4.19 5.074.001.074 0 .147.002.22.086 5.227-3.894 3.377-3.894 2.026v-4.53"/>
        <path stroke-width="1.52" d="M28.747 18.985c-.722-.196-1.433-.272-2.156.105-1.34.698-1.872 2.575-1.506 4.04.186.745.693 1.425 1.385 1.666 1.388.482 2.178-.378 2.576-1.451"/>
        <path stroke-linejoin="round" stroke-width="1.645" d="M52 16.629v32.08A3.29 3.29 0 0 1 48.71 52H4.29A3.29 3.29 0 0 1 1 48.71V16.629"/>
        <path stroke-linecap="round" stroke-linejoin="round" stroke-width="1.645" d="M5.935 13.461l-4.901 3.122M35.153 5.937L28.175 1.52c-1.088-.677-2.352-.71-3.485 0l-6.934 4.415m34.21 10.648l-4.9-3.104m4.9 13.876L28.175 42.42c-1.088.676-2.352.71-3.485 0L1.034 27.355m4.901-1.678V9.226a3.29 3.29 0 0 1 3.29-3.29h34.55a3.29 3.29 0 0 1 3.29 3.29v16.451"/>
    </g>
</svg>
