<svg xmlns="http://www.w3.org/2000/svg" width="220" height="184" viewBox="0 0 220 184">
    <g fill="none" fill-rule="evenodd">
        <path fill="#32C5FF" d="M111.43 71h20.895a4 4 0 0 0 2.84-1.183l13.675-13.782a4 4 0 0 0 1.16-2.817V32.185a4 4 0 0 0-1.16-2.818l-14.074-14.184a4 4 0 0 0-2.84-1.183h-19.283a4 4 0 0 0-2.84 1.183L96.16 28.933A4 4 0 0 0 95 31.752v21.197a4 4 0 0 0 1.004 2.65l12.43 14.052A4 4 0 0 0 111.43 71z"/>
        <g stroke="#545F7C" stroke-width="4">
            <path d="M117.5 83v96.982M101.302 83h32.497a4 4 0 0 0 2.79-1.132l21.2-20.618A4 4 0 0 0 159 58.382V27.19a4 4 0 0 0-1.211-2.868L136 3.132A4 4 0 0 0 133.212 2h-30.058a4 4 0 0 0-2.788 1.132L79.21 23.705A4 4 0 0 0 78 26.573v31.371a4 4 0 0 0 1.051 2.703l19.302 21.056A4 4 0 0 0 101.302 83z"/>
            <path stroke-linecap="round" stroke-linejoin="round" d="M44 181.5h12.493M31 181.5h7.493"/>
            <path d="M106.92 71h21.865a4 4 0 0 0 2.789-1.132l14.215-13.825A4 4 0 0 0 147 53.176v-20.95a4 4 0 0 0-1.211-2.867L131.16 15.132A4 4 0 0 0 128.371 14h-20.188a4 4 0 0 0-2.79 1.132L91.212 28.925A4 4 0 0 0 90 31.793v21.114a4 4 0 0 0 1.051 2.703l12.92 14.093A4 4 0 0 0 106.919 71z"/>
            <path stroke-linecap="square" d="M64 181.5h103.493"/>
            <path stroke-linecap="round" stroke-linejoin="round" d="M176 181.49h12.493M198 180.872h7.493"/>
        </g>
        <path fill="#545F7C" fill-rule="nonzero" stroke="#545F7C" stroke-width=".5" d="M105.873 49.742v-3.219H98v-1.749c.666-1.223 1.515-2.626 2.547-4.207 1.031-1.58 2.474-3.684 4.327-6.31h2.89v10.57h2.214v1.696h-2.215v3.22h-1.89zm-5.94-4.957v.043h5.94v-8.96h-.032a184.352 184.352 0 0 0-3.6 5.22 78.576 78.576 0 0 0-2.308 3.697zM117.397 50c-1.832 0-3.253-.723-4.263-2.168-1.01-1.445-1.515-3.39-1.515-5.837 0-2.426.509-4.364 1.526-5.817 1.017-1.452 2.435-2.178 4.252-2.178 1.817 0 3.23.723 4.24 2.168 1.01 1.445 1.516 3.384 1.516 5.816 0 2.447-.504 4.394-1.51 5.843-1.006 1.449-2.422 2.173-4.246 2.173zm0-1.685c1.223 0 2.16-.57 2.813-1.711.651-1.141.977-2.678.977-4.61 0-1.902-.33-3.428-.988-4.576-.66-1.148-1.593-1.722-2.802-1.722-1.21 0-2.147.575-2.813 1.727-.666 1.152-.999 2.672-.999 4.56 0 1.933.33 3.47.988 4.615.66 1.145 1.6 1.717 2.824 1.717zm15.498 1.427v-3.219h-7.873v-1.749c.666-1.223 1.514-2.626 2.546-4.207 1.032-1.58 2.474-3.684 4.328-6.31h2.889v10.57H137v1.696h-2.215v3.22h-1.89zm-5.94-4.957v.043h5.94v-8.96h-.033a184.352 184.352 0 0 0-3.6 5.22 78.576 78.576 0 0 0-2.307 3.697z"/>
        <g fill="#545F7C">
            <path d="M3.359 102.085A2.166 2.166 0 0 1 1.2 99.916c0-1.196.968-2.169 2.158-2.169s2.158.973 2.158 2.17a2.166 2.166 0 0 1-2.158 2.168zm0-5.545C1.507 96.54 0 98.055 0 99.916s1.507 3.376 3.359 3.376 3.358-1.515 3.358-3.376S5.211 96.54 3.36 96.54zM150.795 125.76a1.98 1.98 0 0 1-1.972-1.982 1.98 1.98 0 0 1 1.972-1.982 1.98 1.98 0 0 1 1.972 1.982 1.98 1.98 0 0 1-1.972 1.982zm0-5.067a3.08 3.08 0 0 0-3.069 3.085 3.08 3.08 0 0 0 3.07 3.085 3.08 3.08 0 0 0 3.069-3.085 3.08 3.08 0 0 0-3.07-3.085zM22.175 130.735a.578.578 0 0 0-.819 0 .584.584 0 0 0 0 .824l.952.956a.576.576 0 0 0 .819 0 .584.584 0 0 0 0-.823l-.952-.957M22.666 133.62a.58.58 0 0 0-.579-.581h-1.346a.58.58 0 0 0-.579.581c0 .322.26.583.58.583h1.345a.58.58 0 0 0 .579-.583M22.3 134.73l-.952.956a.584.584 0 0 0 .41.993.578.578 0 0 0 .41-.17l.95-.956a.584.584 0 0 0 0-.823.577.577 0 0 0-.819 0M24.219 135.193a.58.58 0 0 0-.58.582v1.352a.58.58 0 0 0 1.159 0v-1.352a.58.58 0 0 0-.58-.582M26.142 134.738a.577.577 0 0 0-.82 0 .585.585 0 0 0 0 .823l.952.957a.576.576 0 0 0 .819 0 .584.584 0 0 0 0-.824l-.951-.956M27.708 133.05h-1.346a.581.581 0 0 0 0 1.165h1.346a.581.581 0 0 0 0-1.165M25.74 132.693a.576.576 0 0 0 .41-.17l.952-.956a.585.585 0 0 0 0-.823.577.577 0 0 0-.82 0l-.95.956a.584.584 0 0 0 .408.993M24.23 129.544c-.32 0-.579.26-.579.582v1.352c0 .321.26.582.58.582.32 0 .579-.26.579-.582v-1.352a.581.581 0 0 0-.58-.582M207.682 59.327a.43.43 0 0 0-.61 0 .435.435 0 0 0 0 .613l.709.712a.429.429 0 0 0 .61 0 .435.435 0 0 0 0-.613l-.709-.712M208.047 61.474a.432.432 0 0 0-.43-.433h-1.002a.432.432 0 0 0 0 .866h1.001c.238 0 .431-.194.431-.433M207.774 62.3l-.707.711a.434.434 0 0 0 .304.74c.11 0 .22-.043.305-.127l.708-.712a.435.435 0 0 0 0-.612.43.43 0 0 0-.61 0M209.203 62.644a.432.432 0 0 0-.431.433v1.007a.432.432 0 1 0 .861 0v-1.007a.432.432 0 0 0-.43-.433M210.633 62.306a.43.43 0 0 0-.61 0 .435.435 0 0 0 0 .612l.709.712a.43.43 0 0 0 .61 0 .434.434 0 0 0 0-.613l-.709-.711M211.799 61.05h-1.001a.432.432 0 0 0-.431.433c0 .24.193.433.43.433h1.002c.238 0 .43-.194.43-.433a.432.432 0 0 0-.43-.433M210.335 60.784a.43.43 0 0 0 .305-.126l.707-.712a.435.435 0 0 0 0-.612.43.43 0 0 0-.61 0l-.707.711a.434.434 0 0 0 .305.74M209.211 58.44a.432.432 0 0 0-.43.434v1.006a.432.432 0 1 0 .861 0v-1.006a.432.432 0 0 0-.43-.433M35.223 59.128l-1.83 1.839a1.123 1.123 0 0 0 0 1.583 1.109 1.109 0 0 0 1.576 0l1.829-1.839a1.123 1.123 0 0 0 0-1.583 1.11 1.11 0 0 0-1.575 0M40.628 53.697l-1.83 1.838a1.123 1.123 0 0 0 0 1.583 1.108 1.108 0 0 0 1.575 0l1.83-1.839a1.123 1.123 0 0 0 0-1.582 1.11 1.11 0 0 0-1.575 0M34.969 53.697a1.11 1.11 0 0 0-1.575 0 1.123 1.123 0 0 0 0 1.582l1.83 1.839a1.108 1.108 0 0 0 1.574 0 1.123 1.123 0 0 0 0-1.583l-1.83-1.838M40.373 59.128a1.11 1.11 0 0 0-1.574 0 1.123 1.123 0 0 0 0 1.583l1.829 1.839a1.109 1.109 0 0 0 1.574 0 1.123 1.123 0 0 0 0-1.583l-1.829-1.839M81.077 158.92a.304.304 0 0 0-.11.415c.299.522.12 1.191-.4 1.492-.518.3-1.184.121-1.484-.4-.299-.522-.12-1.191.399-1.492.171-.1.365-.15.561-.147a.303.303 0 0 0 .011-.607 1.685 1.685 0 0 0-.874.227 1.707 1.707 0 0 0-.62 2.322 1.689 1.689 0 0 0 2.31.624 1.707 1.707 0 0 0 .62-2.322.302.302 0 0 0-.413-.112M182.478 39.383a.834.834 0 0 0-.832-.836h-2.992v-3.006a.835.835 0 0 0-.832-.837.835.835 0 0 0-.832.837v3.006h-2.992a.834.834 0 0 0-.833.836c0 .463.373.837.833.837h2.992v3.007c0 .462.372.836.832.836.46 0 .832-.374.832-.836V40.22h2.992c.46 0 .832-.374.832-.837M83.462 122.354h-2.689v-2.702a.75.75 0 0 0-.748-.752.75.75 0 0 0-.748.752v2.702h-2.69a.75.75 0 0 0-.748.752.75.75 0 0 0 .748.752h2.69v2.703a.75.75 0 0 0 .748.752.75.75 0 0 0 .748-.752v-2.703h2.69a.75.75 0 0 0 .748-.752.75.75 0 0 0-.749-.752M219.372 127.761a.762.762 0 0 0-1.082 0l-1.945 1.954-1.943-1.954a.762.762 0 0 0-1.082 0 .771.771 0 0 0 0 1.087l1.944 1.954-1.944 1.954a.771.771 0 0 0 0 1.087c.299.3.783.3 1.082 0l1.943-1.954 1.945 1.954c.298.3.783.3 1.082 0a.772.772 0 0 0 0-1.087l-1.945-1.954 1.945-1.954a.772.772 0 0 0 0-1.087M180.657 90.202h-1.863a.807.807 0 1 0 0 1.612h1.863c.443 0 .802-.36.802-.806a.804.804 0 0 0-.802-.806M186.162 90.202H184.3a.804.804 0 0 0-.802.806.805.805 0 0 0 .802.806h1.863c.443 0 .802-.36.802-.806a.805.805 0 0 0-.802-.806M182.478 86.5a.804.804 0 0 0-.802.806v1.872a.805.805 0 0 0 .802.806.805.805 0 0 0 .803-.806v-1.872a.805.805 0 0 0-.803-.806M182.478 92.032a.804.804 0 0 0-.802.806v1.873a.806.806 0 0 0 .802.806c.443 0 .802-.361.803-.806v-1.873a.804.804 0 0 0-.803-.806M167.571 157.152c-.75 0-1.357.61-1.357 1.364 0 .754.607 1.365 1.357 1.365s1.358-.611 1.358-1.365c0-.753-.608-1.364-1.358-1.364M61.686 87.08c-.53 0-.96.432-.96.964 0 .533.43.965.96.965s.96-.432.96-.965a.962.962 0 0 0-.96-.964"/>
        </g>
    </g>
</svg>
