<svg xmlns="http://www.w3.org/2000/svg" width="51" height="51" viewBox="0 0 51 51">
    <g fill="none" fill-rule="evenodd">
        <path stroke="#235D7B" stroke-linejoin="round" stroke-width="1.729" d="M33.618 2h8.92v47.931H8V2h25.618"/>
        <path fill="#235D7B" d="M13.242 8.585a3.02 3.02 0 0 1 .504-.673 2.923 2.923 0 0 1 4.132-.018l.018.018c.214.214.396.458.538.725l13.674-.002c.139-.264.315-.505.523-.718a2.86 2.86 0 0 1 2.089-.869c.785-.014 1.54.3 2.084.864.199.199.369.426.504.673h-1.622a1.571 1.571 0 0 0 0 3.141l1.615.001a3.015 3.015 0 0 1-.504.672 2.922 2.922 0 0 1-4.132.019l-.027-.027a3.298 3.298 0 0 1-.513-.665l-13.707.001a3.24 3.24 0 0 1-.503.656 2.857 2.857 0 0 1-2.097.876 2.828 2.828 0 0 1-2.079-.86 3.086 3.086 0 0 1-.513-.679l1.632.006a1.567 1.567 0 0 0-.002-3.133h-.003l-1.611-.008z"/>
        <path fill="#32C5FF" d="M30.026 20.605l1.757-1.371 2.356 1.37-.355 2.59.964 1.575 2.54.254.812 2.44-1.98 1.825.05 1.828 1.93 1.625-.435 2.691-2.612.203-1.422 1.422.762 2.387-2.61 2.03-2.062-1.573-1.675.863-.914 2.031-2.945.457-.914-2.54-2.184-.608-1.842 1.117-2.575-1.625.66-2.387-.965-1.726-2.59.254-1.066-2.945 1.98-1.549-.05-2.26-1.93-1.218 1.015-2.793 2.184-.102 1.523-1.675-.812-2.184 2.386-1.777 1.828 1.168 2.54-.66.66-2.184h2.843l.863 2.742 2.285.305"/>
        <path fill="#FFFFFE" d="M31.674 30.405a6.268 6.268 0 1 1-12.537 0 6.268 6.268 0 0 1 12.537 0"/>
        <path fill="#235D7B" d="M21.128 39.491c.078 0 .153.016.225.047.62.263 1.261.466 1.906.6.205.044.37.196.431.397l.573 1.894a.28.28 0 0 0 .248.2 12.386 12.386 0 0 0 1.858-.005.281.281 0 0 0 .248-.201l.564-1.898c.06-.2.225-.353.43-.398a10.252 10.252 0 0 0 1.9-.611.585.585 0 0 1 .573.068l1.61 1.21a.28.28 0 0 0 .315.015c.52-.318 1.022-.677 1.488-1.067a.28.28 0 0 0 .084-.312l-.676-1.853a.574.574 0 0 1 .113-.582 9.844 9.844 0 0 0 1.169-1.585c.1-.167.298-.28.493-.28l2.05.05a.28.28 0 0 0 .26-.174c.227-.552.415-1.124.558-1.703a.281.281 0 0 0-.116-.3L35.77 31.89a.576.576 0 0 1-.252-.532 9.974 9.974 0 0 0-.006-1.961.574.574 0 0 1 .25-.533l1.655-1.12a.281.281 0 0 0 .115-.302 12.031 12.031 0 0 0-.568-1.7.281.281 0 0 0-.26-.171l-2.035.06h-.018a.575.575 0 0 1-.492-.278 10.072 10.072 0 0 0-1.179-1.583.574.574 0 0 1-.115-.58l.666-1.853a.28.28 0 0 0-.085-.311c-.47-.388-.973-.744-1.495-1.06a.279.279 0 0 0-.315.016L30.032 21.2a.568.568 0 0 1-.573.07 10.362 10.362 0 0 0-1.903-.6.577.577 0 0 1-.431-.395l-.575-1.894a.28.28 0 0 0-.248-.198 15.47 15.47 0 0 0-.895-.033h-.029c-.313 0-.617.013-.934.038a.281.281 0 0 0-.248.2l-.562 1.896a.577.577 0 0 1-.43.398c-.646.14-1.286.346-1.9.61a.572.572 0 0 1-.575-.067l-1.61-1.21a.278.278 0 0 0-.315-.015c-.52.32-1.02.678-1.488 1.069a.282.282 0 0 0-.083.312l.678 1.849c.073.2.03.423-.113.582a10.005 10.005 0 0 0-1.17 1.588.568.568 0 0 1-.474.282l-2.066-.05a.282.282 0 0 0-.262.173 12.24 12.24 0 0 0-.561 1.701.282.282 0 0 0 .116.302l1.664 1.11a.578.578 0 0 1 .253.539 9.283 9.283 0 0 0 .005 1.951.572.572 0 0 1-.249.538l-1.657 1.12a.28.28 0 0 0-.115.302c.146.575.337 1.147.569 1.7a.282.282 0 0 0 .259.172l2.027-.06c.242.01.412.1.52.279a9.84 9.84 0 0 0 1.176 1.577c.145.157.19.38.117.582l-.667 1.855a.28.28 0 0 0 .085.311c.47.389.973.746 1.494 1.06a.278.278 0 0 0 .315-.017l1.604-1.218a.574.574 0 0 1 .347-.118zm4.276 4.32c-.516 0-1.036-.032-1.59-.095a.574.574 0 0 1-.485-.404l-.596-1.971a.282.282 0 0 0-.199-.191c-.39-.1-.785-.226-1.175-.372a.275.275 0 0 0-.268.04l-1.67 1.267a.57.57 0 0 1-.623.048 13.694 13.694 0 0 1-2.64-1.876.575.575 0 0 1-.155-.62l.696-1.935a.28.28 0 0 0-.05-.275 10.758 10.758 0 0 1-.713-.959.28.28 0 0 0-.234-.125l-2.121.063a.567.567 0 0 1-.537-.327 13.266 13.266 0 0 1-1.017-3.045.571.571 0 0 1 .241-.591l1.728-1.169a.282.282 0 0 0 .123-.248 11.465 11.465 0 0 1-.003-1.18.28.28 0 0 0-.125-.25l-1.735-1.158a.575.575 0 0 1-.245-.59 13.36 13.36 0 0 1 1.001-3.048c.102-.215.354-.331.54-.331l2.114.051a.282.282 0 0 0 .236-.126c.219-.335.458-.66.71-.965a.28.28 0 0 0 .046-.275l-.706-1.93a.572.572 0 0 1 .151-.62c.8-.733 1.684-1.368 2.63-1.891a.575.575 0 0 1 .622.043l1.678 1.259a.28.28 0 0 0 .269.038c.38-.145.775-.272 1.172-.377a.281.281 0 0 0 .198-.192l.586-1.974a.575.575 0 0 1 .481-.406A13.46 13.46 0 0 1 25.37 17c.52.012 1.08.03 1.631.094a.577.577 0 0 1 .484.404l.598 1.972a.283.283 0 0 0 .198.19c.4.103.794.228 1.174.371a.28.28 0 0 0 .27-.039l1.669-1.268a.566.566 0 0 1 .621-.047c.95.518 1.84 1.15 2.642 1.876.173.157.234.401.155.62l-.695 1.934a.28.28 0 0 0 .048.274c.256.308.497.632.716.962a.28.28 0 0 0 .234.126l2.11-.064c.265.012.449.122.547.327.464.98.806 2.004 1.015 3.047a.572.572 0 0 1-.24.588l-1.728 1.17a.28.28 0 0 0-.123.25 10.575 10.575 0 0 1 .004 1.177.279.279 0 0 0 .124.248l1.733 1.16c.193.13.288.361.244.588a13.126 13.126 0 0 1-.998 3.051.585.585 0 0 1-.544.332l-2.11-.052a.28.28 0 0 0-.235.127c-.218.332-.457.656-.71.962a.282.282 0 0 0-.046.275l.705 1.932c.08.22.021.463-.151.62-.8.733-1.686 1.369-2.632 1.89a.567.567 0 0 1-.622-.044l-1.677-1.26a.28.28 0 0 0-.269-.037c-.383.146-.777.274-1.172.378a.282.282 0 0 0-.197.192l-.586 1.975a.576.576 0 0 1-.482.406c-.564.068-1.096.102-1.63.104h-.04z"/>
        <path fill="#235D7B" d="M25.405 36.674a6.275 6.275 0 0 1-6.267-6.269 6.276 6.276 0 0 1 6.267-6.268 6.276 6.276 0 0 1 6.269 6.268 6.275 6.275 0 0 1-6.269 6.269zm0-13.687c-4.09 0-7.417 3.328-7.417 7.418s3.328 7.418 7.417 7.418c4.09 0 7.418-3.328 7.418-7.418s-3.327-7.417-7.418-7.418z"/>
        <path fill="#235D7B" d="M25.405 35.257a.576.576 0 0 1-.574-.575v-.123a.28.28 0 0 0-.198-.268c-.683-.212-1.235-.72-1.475-1.358a.576.576 0 0 1 .537-.778c.237 0 .453.15.537.372.16.421.624.704 1.155.704.315 0 .603-.105.812-.296a1 1 0 0 0 .343-.75c0-.622-.844-1.047-1.347-1.245-1.805-.71-2.075-1.755-2.075-2.314 0-.611.256-1.18.722-1.602.222-.202.492-.36.802-.469a.28.28 0 0 0 .187-.264v-.163a.575.575 0 0 1 1.149 0v.122c0 .123.08.232.198.268.684.213 1.235.721 1.476 1.36a.57.57 0 0 1-.014.44.569.569 0 0 1-.525.337.575.575 0 0 1-.536-.371c-.16-.421-.622-.703-1.152-.703-.315 0-.604.104-.814.294-.222.2-.343.467-.343.751 0 .622.844 1.046 1.346 1.244 1.806.71 2.075 1.755 2.075 2.315 0 .61-.256 1.18-.72 1.602a2.361 2.361 0 0 1-.804.469.28.28 0 0 0-.187.264v.162a.575.575 0 0 1-.575.575"/>
    </g>
</svg>
