<svg xmlns="http://www.w3.org/2000/svg" width="51" height="51" viewBox="0 0 51 51">
    <g fill="none" fill-rule="evenodd">
        <path fill="#32C5FF" stroke="#545F7C" stroke-width="2" d="M44.244 18.713V6.943H36.4v4.566"/>
        <path stroke="#545F7C" stroke-width="2" d="M44.106 18.09v27.409c0 1.467-1.048 2.668-2.33 2.668H10.104c-1.282 0-2.33-1.201-2.33-2.668V19.03M.633 25.33L26.884 1.703M50.98 24.623L25.213 1.702"/>
        <path fill="#545F7C" d="M30.107 35.076c-.385 0-.692-.169-.923-.507a2.04 2.04 0 0 1-.346-1.179v-.037c0-.447.103-.833.307-1.159.205-.326.512-.488.923-.488.384 0 .692.169.924.507.23.339.344.731.344 1.177v.039c0 .435-.103.818-.307 1.15-.205.331-.512.497-.922.497zm0-5.113c-.488 0-.932.09-1.336.269-.403.178-.75.424-1.038.737a3.414 3.414 0 0 0-.673 1.09c-.16.416-.239.86-.239 1.331v.039c0 .472.077.913.23 1.321.154.409.374.766.663 1.073.288.306.631.549 1.029.728.397.179.838.268 1.325.268s.932-.09 1.335-.268c.405-.179.75-.425 1.038-.737.288-.314.513-.677.674-1.092.16-.415.239-.858.239-1.332v-.037c0-.473-.078-.913-.23-1.322a3.167 3.167 0 0 0-1.692-1.8 3.19 3.19 0 0 0-1.325-.268zm1.903-6.703h-2.288l-9.82 13.406h2.287l9.82-13.406zm-10.166 4.96c-.385 0-.692-.168-.923-.507a2.042 2.042 0 0 1-.347-1.177v-.039c0-.447.104-.833.308-1.158.205-.326.513-.489.923-.489.384 0 .691.17.923.507.23.34.346.732.346 1.179v.037c0 .435-.104.817-.308 1.15-.204.332-.512.497-.922.497zm0-5.112a3.26 3.26 0 0 0-1.336.267 3.123 3.123 0 0 0-1.039.738 3.403 3.403 0 0 0-.671 1.092c-.16.415-.24.858-.24 1.33v.038c0 .473.077.913.23 1.322.154.41.375.766.663 1.073.288.306.631.548 1.028.727.398.18.839.268 1.326.268.487 0 .931-.089 1.335-.268.405-.179.75-.424 1.04-.737a3.43 3.43 0 0 0 .67-1.091c.16-.416.24-.859.24-1.331v-.039c0-.472-.076-.913-.23-1.321a3.183 3.183 0 0 0-1.69-1.8 3.193 3.193 0 0 0-1.326-.268z"/>
    </g>
</svg>
