<svg xmlns="http://www.w3.org/2000/svg" xmlns:xlink="http://www.w3.org/1999/xlink" width="51" height="51" viewBox="0 0 51 51">
    <defs>
        <path id="a" d="M.5.019h4.805v12.756H.5z"/>
        <path id="c" d="M8.939 1.79L8.41 9.519l-2.958 5.162-5.323 1.303v9.859h8.067l10.732.709 2.197-4.667 1.407-7.642-.908-2.013H15.09l-1.524-5.774-.292-4.842L11.633.477z"/>
        <path id="e" d="M.5.019h4.805v12.756H.5z"/>
        <path id="g" d="M8.939 1.79L8.41 9.519l-2.958 5.162-5.323 1.303v9.859h8.067l10.732.709 2.197-4.667 1.407-7.642-.908-2.013H15.09l-1.524-5.774-.292-4.842L11.633.477z"/>
    </defs>
    <g fill="none" fill-rule="evenodd">
        <path fill="#32C5FF" d="M48.227 33.91c0 8.332-6.753 15.085-15.084 15.085-8.33 0-15.084-6.753-15.084-15.084 0-8.332 6.753-15.085 15.084-15.085S48.227 25.58 48.227 33.91"/>
        <path stroke="#235D7B" stroke-width="1.729" d="M48.227 33.91c0 8.332-6.753 15.085-15.084 15.085-8.33 0-15.084-6.753-15.084-15.084 0-8.332 6.753-15.085 15.084-15.085S48.227 25.58 48.227 33.91z"/>
        <path stroke="#235D7B" stroke-linejoin="round" stroke-width="1.729" d="M22.908 30.172l7.478 7.478M36.368 29.922l7.976 7.977"/>
        <path fill="#235D7B" d="M32.23 30.564a.74.74 0 0 0-.215.14.597.597 0 0 0-.202.464c0 .211.05.353.157.474a.86.86 0 0 0 .26.177v-1.255zm2.166 6.093a.86.86 0 0 0 .25-.15.595.595 0 0 0 .207-.488c0-.228-.053-.377-.167-.498a1.005 1.005 0 0 0-.29-.198v1.334zM32.17 40.72v-1.544a7.33 7.33 0 0 1-3.293-1.499l-.363-.294 1.519-2.164.416.338c.397.321.79.582 1.167.775.196.1.4.184.615.252v-1.879c-.98-.284-1.71-.648-2.223-1.109-.62-.552-.934-1.324-.934-2.295 0-.492.09-.926.266-1.319.178-.395.433-.74.757-1.03a3.686 3.686 0 0 1 1.132-.683 4.84 4.84 0 0 1 .942-.255V27.1h2.283v.96c.418.08.81.196 1.174.347.479.2.948.467 1.395.795l.366.27-1.345 2.255-.445-.337a4.892 4.892 0 0 0-1.203-.676v1.753c1.02.296 1.769.678 2.28 1.162.61.572.918 1.331.918 2.258 0 .504-.092.945-.274 1.337a3.118 3.118 0 0 1-.765 1.026c-.318.284-.7.516-1.135.69a4.768 4.768 0 0 1-.967.263v1.517H32.17z"/>
        <path fill="#FFF" d="M34.953 26.6H31.67v1.007a5.035 5.035 0 0 0-.62.196 4.195 4.195 0 0 0-1.288.778 3.543 3.543 0 0 0-.878 1.196c-.206.46-.31.961-.31 1.494 0 1.424.6 2.251 1.103 2.7.5.45 1.176.814 2.053 1.103v.753a6.486 6.486 0 0 1-.966-.659l-.833-.675-.616.877-.942 1.344-.538.765.73.587a7.807 7.807 0 0 0 3.105 1.517v1.637h3.283V39.61c.227-.056.445-.125.652-.207a4.318 4.318 0 0 0 1.284-.78c.371-.33.67-.73.883-1.187a3.59 3.59 0 0 0 .322-1.522c0-1.082-.372-1.989-1.075-2.65-.506-.478-1.205-.862-2.124-1.165v-.583c.135.082.27.173.402.273l.89.673.572-.959.826-1.386.465-.78-.732-.538a7.281 7.281 0 0 0-1.498-.853 6.205 6.205 0 0 0-.867-.288V26.6zm-1.058 10.671c.472-.037.832-.167 1.082-.39.252-.221.376-.507.376-.862v-.03c0-.324-.1-.594-.302-.81-.202-.216-.586-.408-1.156-.576v2.669zM32.73 32.54v-2.594c-.472.038-.826.171-1.062.398-.236.226-.354.5-.354.824v.03c0 .304.094.562.28.775.186.21.567.399 1.136.567zm1.223-4.94v.885c.54.07 1.034.199 1.482.385.446.186.876.432 1.291.736l-.827 1.386c-.638-.482-1.308-.796-2.004-.944v2.803c1.12.284 1.933.664 2.438 1.142.507.476.761 1.108.761 1.895v.027c0 .405-.076.77-.228 1.099-.154.33-.367.618-.642.862a3.3 3.3 0 0 1-.989.599c-.382.15-.81.248-1.282.288v1.458H32.67v-1.474a6.83 6.83 0 0 1-3.479-1.459l.943-1.342c.424.344.842.622 1.254.832.412.212.86.358 1.342.436v-2.891c-1.082-.274-1.878-.64-2.388-1.098-.513-.457-.768-1.1-.768-1.923v-.03c0-.392.073-.754.222-1.084.148-.328.358-.616.634-.862.274-.246.602-.442.98-.591a4.617 4.617 0 0 1 1.26-.28V27.6h1.283z"/>
        <path fill="#32C5FF" d="M48.615 32.27c0 9.328-7.56 16.889-16.888 16.889-9.327 0-16.888-7.561-16.888-16.888 0-9.327 7.561-16.888 16.888-16.888 9.327 0 16.888 7.56 16.888 16.888"/>
        <path stroke="#235D7B" stroke-width="1.729" d="M48.615 32.27c0 9.328-7.56 16.889-16.888 16.889-9.327 0-16.888-7.561-16.888-16.888 0-9.327 7.561-16.888 16.888-16.888 9.327 0 16.888 7.56 16.888 16.888z"/>
        <path fill="#FFF" d="M44.978 32.27c0 7.319-5.933 13.252-13.25 13.252-7.319 0-13.251-5.933-13.251-13.251S24.409 19.02 31.728 19.02c7.317 0 13.25 5.933 13.25 13.25"/>
        <path stroke="#235D7B" stroke-width="1.729" d="M44.978 32.27c0 7.319-5.933 13.252-13.25 13.252-7.319 0-13.251-5.933-13.251-13.251S24.409 19.02 31.728 19.02c7.317 0 13.25 5.933 13.25 13.25z"/>
        <path stroke="#235D7B" stroke-linejoin="round" stroke-width="1.729" d="M25.26 25.303l3.38 3.654"/>
        <path fill="#235D7B" d="M31.016 28.115c-.333.059-.589.174-.767.343a.985.985 0 0 0-.319.742c0 .314.082.543.252.736.1.114.326.279.834.458v-2.28zm1.803 7.637c.34-.06.607-.174.796-.342.228-.2.338-.454.338-.778 0-.334-.089-.575-.27-.77-.114-.12-.354-.292-.864-.473v2.363zm-1.87 3.834v-1.682a7.886 7.886 0 0 1-3.802-1.657l-.183-.147 1.344-1.914.208.169c.462.375.92.678 1.361.904.354.182.736.319 1.14.408v-2.741c-1.152-.311-2.024-.726-2.593-1.237-.625-.557-.943-1.344-.943-2.34 0-.505.091-.948.271-1.348.182-.403.441-.756.771-1.05.326-.292.721-.53 1.174-.707a5.228 5.228 0 0 1 1.252-.306v-.981h1.935v1.023a6.632 6.632 0 0 1 1.506.416 7.235 7.235 0 0 1 1.497.853l.183.135-1.184 1.987-.223-.168a5.556 5.556 0 0 0-1.844-.938v2.626c1.21.326 2.08.748 2.653 1.29.616.58.93 1.355.93 2.303 0 .519-.095.968-.28 1.367a3.18 3.18 0 0 1-.78 1.047 3.94 3.94 0 0 1-1.18.715 5.123 5.123 0 0 1-1.278.315v1.658H30.95z"/>
        <path fill="#FFF" d="M33.07 35.432v-1.674c.251.115.372.213.43.274.137.15.202.329.202.567 0 .288-.077.47-.252.624a1.101 1.101 0 0 1-.38.21zm-2.304-5.408c-.253-.116-.357-.208-.397-.254a.769.769 0 0 1-.189-.537c0-.259.077-.437.242-.595a.964.964 0 0 1 .344-.202v1.589zm2.368-5.318h-2.436v1.014a5.371 5.371 0 0 0-1.09.29 4.071 4.071 0 0 0-1.252.755 3.349 3.349 0 0 0-.832 1.132 3.437 3.437 0 0 0-.293 1.42c0 1.102.346 1.952 1.028 2.559.573.515 1.396.922 2.507 1.24v2.229a4.438 4.438 0 0 1-.775-.309 7.654 7.654 0 0 1-1.318-.876l-.416-.337-.308.438-1.055 1.503-.269.383.365.294a8.141 8.141 0 0 0 3.708 1.675v1.72h2.436v-1.69a5.263 5.263 0 0 0 1.121-.302c.478-.189.9-.445 1.254-.76.353-.314.637-.693.84-1.128.2-.433.302-.918.302-1.44 0-1.052-.34-1.888-1.009-2.518-.573-.542-1.417-.968-2.573-1.298v-2.093c.496.178.98.444 1.443.794l.445.337.286-.479.925-1.553.233-.39-.367-.269a7.497 7.497 0 0 0-1.548-.883 6.77 6.77 0 0 0-1.352-.395v-1.063zm-.565 11.328c.53-.043.932-.189 1.212-.437.282-.249.421-.569.421-.966v-.033c0-.363-.112-.666-.338-.908-.226-.24-.656-.456-1.295-.645v2.99zm-1.303-5.298v-2.905c-.529.042-.926.193-1.19.446a1.23 1.23 0 0 0-.396.923v.034c0 .34.105.63.313.866.21.237.634.448 1.273.636zm1.368-5.53v.99a6.485 6.485 0 0 1 1.66.43c.5.208.981.484 1.444.824l-.924 1.552c-.715-.539-1.465-.89-2.245-1.057v3.138c1.254.318 2.164.744 2.73 1.28.567.532.852 1.24.852 2.12v.032c0 .452-.085.862-.255 1.23-.173.37-.41.691-.72.965a3.701 3.701 0 0 1-1.106.67c-.428.17-.907.277-1.436.322v1.633h-1.436v-1.65a7.63 7.63 0 0 1-3.895-1.633l1.055-1.504c.475.385.943.697 1.405.932.461.238.963.401 1.503.49v-3.238c-1.212-.307-2.104-.717-2.675-1.23-.573-.51-.86-1.23-.86-2.153v-.033c0-.439.083-.844.25-1.214.165-.367.4-.69.71-.965a3.556 3.556 0 0 1 1.096-.66 5.128 5.128 0 0 1 1.411-.315v-.956h1.436z"/>
        <g transform="translate(0 15.023)">
            <mask id="b" fill="#fff">
                <use xlink:href="#a"/>
            </mask>
            <path stroke="#F5F5F7" stroke-width="5" d="M-4.5 17.776h14.805V-4.98H-4.5z" mask="url(#b)"/>
        </g>
        <path stroke="#F5F5F7" stroke-width="5" d="M.5 27.8h4.805V15.042H.5z"/>
        <g transform="translate(5 1.023)">
            <mask id="d" fill="#fff">
                <use xlink:href="#c"/>
            </mask>
            <path stroke="#F5F5F7" stroke-width="5" d="M-4.871 31.552h32.402V-4.524H-4.871z" mask="url(#d)"/>
        </g>
        <g stroke="#F5F5F7" stroke-width="5">
            <path d="M13.196 26.866H5.13v-9.859l5.322-1.303 2.958-5.162.529-7.729L16.634 1.5l1.64 1.137.293 4.843 1.523 5.774h6.534l.908 2.012-1.406 7.642-2.198 4.667-10.732-.709"/>
            <path d="M1.437 15.524a.43.43 0 0 0-.431.43v10.482c0 .237.193.43.43.43H4.07c.24 0 .433-.193.433-.43V15.954a.431.431 0 0 0-.433-.43H1.437zM11.92 28.626a.883.883 0 0 1-.883-.88c0-.485.396-.88.883-.88h10.263c.613-.002 1.311-.19 1.633-.37a.425.425 0 0 0 .209-.282c.042-.188.072-.452.07-.613a.428.428 0 0 0-.114-.283 2.776 2.776 0 0 1-.159-.354c-.212-.6-.078-1.209.35-1.589.22-.195.465-.288.63-.348a.657.657 0 0 0 .399-.732.464.464 0 0 0-.049-.12c-.232-.389-.462-.854-.273-1.43.168-.499.582-.797.72-.895.582-.419.913-.768.983-1.038a.435.435 0 0 0-.075-.367 4.612 4.612 0 0 1-.105-.148.313.313 0 0 0-.043-.052c-.327-.347-.572-.922-.28-1.49.13-.25.3-.437.438-.586l.116-.13c.102-.125.224-.312.24-.66a.432.432 0 0 0-.053-.23 55.526 55.526 0 0 0-.416-.722.432.432 0 0 0-.373-.214h-6.67a.885.885 0 0 1-.88-.805c-.026-.315-.65-7.696-.674-8.544a3.572 3.572 0 0 0-.276-1.337 2.576 2.576 0 0 0-.512-.767c-.217-.222-.518-.339-.873-.339-.149 0-.273.02-.352.038-.573.114-.851.26-.953.5-.121.27-.103.685-.061 1.242.027.37.058.792.01 1.204l-.02.267c-.7 9.393-4.807 11.92-8.13 12.385a.43.43 0 0 0-.37.425v8.28a1.861 1.861 0 0 1-1.854 1.864H1.088a1.86 1.86 0 0 1-1.851-1.864V15.63a1.86 1.86 0 0 1 1.852-1.865h3.325c1.022 0 1.854.837 1.854 1.865v.181a.436.436 0 0 0 .519.421c3.602-.742 5.752-4.437 6.217-10.687l.004-.046c.01-.132.018-.23.025-.29.027-.24.008-.529-.019-.88-.048-.66-.1-1.403.223-2.113.527-1.149 1.71-1.383 2.216-1.483.23-.048.46-.07.688-.07.835 0 1.596.308 2.146.871.36.371.651.806.864 1.291.26.595.402 1.265.424 1.993.015.621.438 5.701.566 7.242a.43.43 0 0 0 .43.394h6.21c.31 0 .602.165.76.43 1.053 1.761 1.063 1.85 1.082 2.064.08.826-.118 1.568-.573 2.145a.43.43 0 0 0-.037.477c.123.217.213.42.262.581.296 1-.142 1.948-1.341 2.9a.428.428 0 0 0-.125.51c.038.085.067.165.088.243.274.98-.136 2.085-.974 2.632a.428.428 0 0 0-.17.506c.045.126.075.248.091.37.044.35.01 1.567-.479 2.163-.741.906-2.404 1.15-3.18 1.152H11.921z"/>
        </g>
        <g transform="translate(1 15.023)">
            <mask id="f" fill="#fff">
                <use xlink:href="#e"/>
            </mask>
            <path fill="#32C5FF" d="M-4.5 17.776h14.805V-4.98H-4.5z" mask="url(#f)"/>
        </g>
        <g transform="translate(6 1.023)">
            <mask id="h" fill="#fff">
                <use xlink:href="#g"/>
            </mask>
            <path fill="#FFFFFE" d="M-4.871 31.552h32.402V-4.524H-4.871z" mask="url(#h)"/>
        </g>
        <path fill="#235D7B" d="M2.437 15.524a.43.43 0 0 0-.431.43v10.482c0 .237.193.43.43.43H5.07c.24 0 .433-.193.433-.43V15.954a.431.431 0 0 0-.433-.43H2.437zM12.92 28.626a.883.883 0 0 1-.883-.88c0-.485.396-.88.883-.88h10.263c.613-.002 1.311-.19 1.633-.37a.425.425 0 0 0 .209-.282c.042-.188.072-.452.07-.613a.428.428 0 0 0-.114-.283 2.776 2.776 0 0 1-.159-.354c-.212-.6-.078-1.209.35-1.589.22-.195.465-.288.63-.348a.657.657 0 0 0 .399-.732.464.464 0 0 0-.049-.12c-.232-.389-.462-.854-.273-1.43.168-.499.582-.797.72-.895.582-.419.913-.768.983-1.038a.435.435 0 0 0-.075-.367 4.612 4.612 0 0 1-.105-.148.313.313 0 0 0-.043-.052c-.327-.347-.572-.922-.28-1.49.13-.25.3-.437.438-.586l.116-.13c.102-.125.224-.312.24-.66a.432.432 0 0 0-.053-.23 55.526 55.526 0 0 0-.416-.722.432.432 0 0 0-.373-.214h-6.67a.885.885 0 0 1-.88-.805c-.026-.315-.65-7.696-.674-8.544a3.572 3.572 0 0 0-.276-1.337 2.576 2.576 0 0 0-.512-.767c-.217-.222-.518-.339-.873-.339-.149 0-.273.02-.352.038-.573.114-.852.26-.953.5-.121.27-.103.685-.062 1.242.029.37.058.792.012 1.204l-.021.267c-.7 9.393-4.807 11.92-8.13 12.385a.43.43 0 0 0-.37.425v8.28a1.861 1.861 0 0 1-1.854 1.864H2.088a1.86 1.86 0 0 1-1.851-1.864V15.63a1.86 1.86 0 0 1 1.852-1.865h3.325c1.022 0 1.855.837 1.855 1.865v.181c0 .13.058.252.159.333a.436.436 0 0 0 .36.088c3.601-.742 5.752-4.437 6.216-10.687l.004-.046c.01-.132.018-.23.025-.29.027-.24.008-.529-.019-.88-.048-.66-.1-1.403.223-2.113.527-1.149 1.71-1.383 2.216-1.483.23-.048.46-.07.688-.07.835 0 1.596.308 2.146.871.36.371.651.806.864 1.291.26.595.402 1.265.424 1.993.015.621.438 5.701.566 7.242a.43.43 0 0 0 .43.394h6.21c.31 0 .602.165.76.43 1.053 1.761 1.063 1.85 1.082 2.064.08.826-.118 1.568-.573 2.145a.43.43 0 0 0-.037.477c.123.217.213.42.262.581.296 1-.142 1.948-1.341 2.9a.428.428 0 0 0-.125.51c.038.085.067.165.088.243.274.98-.136 2.085-.974 2.632a.428.428 0 0 0-.17.506c.045.126.075.248.091.37.044.35.01 1.567-.479 2.163-.741.906-2.404 1.15-3.18 1.152H12.921z"/>
    </g>
</svg>
