<svg xmlns="http://www.w3.org/2000/svg" width="152" height="27" viewBox="0 0 152 27">
    <g fill="none" fill-rule="nonzero">
        <path fill="#243960" d="M130.938 20.021c-.08.048-.157.074-.238.137-.982 1.02-2.206 1.53-3.67 1.53a5.174 5.174 0 0 1-1.98-.382 5.04 5.04 0 0 1-1.69-1.148c-1.01-1.018-1.511-2.242-1.511-3.674 0-1.455.502-2.694 1.51-3.712 1.056-1.018 2.278-1.53 3.672-1.53 1.435 0 2.274.17 3.277 1.185l3.077-3.112-.003-.008c-.864-.873-1.494-1.186-2.644-1.683a9.253 9.253 0 0 0-3.707-.748c-1.32 0-2.555.25-3.707.748a9.508 9.508 0 0 0-3.023 2.055 9.562 9.562 0 0 0-2.77 6.805c0 1.31.245 2.546.735 3.713a9.644 9.644 0 0 0 2.035 3.054 9.482 9.482 0 0 0 3.023 2.057 9.278 9.278 0 0 0 3.707.746c1.318 0 2.555-.25 3.707-.746a9.478 9.478 0 0 0 3.017-2.053l-2.817-3.234zM100.955 10.966c-1.441 0-2.663.511-3.67 1.53-1.009 1.018-1.512 2.255-1.512 3.71 0 1.434.503 2.658 1.512 3.676.48.51 1.037.892 1.67 1.146a5.35 5.35 0 0 0 2 .383c.694 0 1.355-.13 1.98-.383a5.027 5.027 0 0 0 1.69-1.146c1.006-1.018 1.511-2.242 1.511-3.676 0-1.455-.505-2.692-1.512-3.71-1.054-1.019-2.278-1.53-3.67-1.53m0-4.366c1.319 0 2.556.25 3.708.747a9.49 9.49 0 0 1 3.02 2.056 9.577 9.577 0 0 1 2.772 6.803 9.6 9.6 0 0 1-2.772 6.769 9.526 9.526 0 0 1-3.02 2.057 9.284 9.284 0 0 1-3.707.746c-1.32 0-2.554-.25-3.708-.746a9.534 9.534 0 0 1-5.055-5.114 9.434 9.434 0 0 1-.737-3.712c0-1.333.245-2.582.737-3.749a9.639 9.639 0 0 1 2.033-3.054 9.498 9.498 0 0 1 3.022-2.056 9.253 9.253 0 0 1 3.708-.747M112.07 6.864s4.302-.19 4.302 4.238v14.7h-1.354s-2.91.186-2.91-2.138l-.037-16.8zM89.704 12.104a8.505 8.505 0 0 0-1.584-2.746 7.344 7.344 0 0 0-2.465-1.857c-.96-.448-2.029-.675-3.203-.675-1.007 0-1.92.183-2.735.547a8.32 8.32 0 0 0-2.142 1.379L77.526 0c-1.934 0-4.331.053-4.331.053l.01 5.864v20.127h4.317V15.452c0-1.188.408-2.197 1.222-3.02.817-.826 1.813-1.24 2.987-1.24 1.152 0 2.135.414 2.953 1.24.408.412.72.873.935 1.38.215.511.325 1.057.325 1.64v10.592h4.318V15.452a9.912 9.912 0 0 0-.558-3.348M69.141 20.846c-.06.026-.115.037-.174.07-.712.48-.491.39-1.446.789-.96.403-1.98.602-3.07.602a7.709 7.709 0 0 1-5.614-2.373 8.121 8.121 0 0 1-1.747-2.653 8.232 8.232 0 0 1-.602-3.122c0-1.09.2-2.126.602-3.108a8.167 8.167 0 0 1 1.748-2.637 8 8 0 0 1 2.577-1.789 7.647 7.647 0 0 1 3.036-.617c1.09 0 2.11.208 3.07.617a8.614 8.614 0 0 1 1.483.832c.024.015.046.019.07.033l2.54-3.019a13.107 13.107 0 0 0-2.528-1.519C67.651 2.318 66.106 2 64.451 2c-1.632 0-3.173.318-4.618.952a11.942 11.942 0 0 0-3.787 2.606A12.27 12.27 0 0 0 53.5 9.432c-.62 1.479-.928 3.056-.928 4.727 0 1.668.308 3.245.928 4.725a12.27 12.27 0 0 0 2.547 3.875 11.937 11.937 0 0 0 3.787 2.604c1.445.635 2.986.951 4.618.951 1.654 0 3.2-.316 4.635-.951 1.167-.517 1.815-.804 2.32-1.282l-2.265-3.235z"/>
        <path fill="#243960" d="M137.596 15.049c.156-1.076.65-1.928 1.48-2.555.831-.628 1.908-.94 3.226-.94 1.316 0 2.391.312 3.223.94.831.627 1.276 1.48 1.34 2.555h-9.27zm14.05 3.342a9.071 9.071 0 0 0 .252-2.185 9.528 9.528 0 0 0-.739-3.747 9.52 9.52 0 0 0-5.054-5.112 9.26 9.26 0 0 0-3.707-.747 9.24 9.24 0 0 0-3.707.747 9.529 9.529 0 0 0-5.057 5.112 9.527 9.527 0 0 0-.737 3.747 9.45 9.45 0 0 0 .737 3.714 9.613 9.613 0 0 0 2.034 3.055 9.503 9.503 0 0 0 3.023 2.057 9.271 9.271 0 0 0 3.707.746c1.44 0 2.77-.284 3.994-.855a9.103 9.103 0 0 0 3.13-2.383s-.183-.719-1.844-1.817c0 0-1.4-.889-2.655-.002-.767.46-1.642.69-2.625.69a5.196 5.196 0 0 1-1.98-.381 5.04 5.04 0 0 1-1.691-1.148 4.516 4.516 0 0 1-1.045-1.49H151.646z"/>
        <path fill="#32C5FF" d="M41.26 6.6c1.256 0 2.432.245 3.53.733a9.01 9.01 0 0 1 2.877 2.017 9.431 9.431 0 0 1 1.935 2.996c.47 1.142.704 2.368.704 3.675 0 1.286-.233 2.5-.704 3.641a9.431 9.431 0 0 1-1.935 2.997 9.04 9.04 0 0 1-2.877 2.016 8.596 8.596 0 0 1-3.53.733 8.581 8.581 0 0 1-3.529-.733 9.02 9.02 0 0 1-2.877-2.016 9.436 9.436 0 0 1-1.937-2.997 9.5 9.5 0 0 1-.703-3.641c0-1.307.235-2.533.703-3.675a9.436 9.436 0 0 1 1.937-2.996 8.99 8.99 0 0 1 2.877-2.017A8.581 8.581 0 0 1 41.26 6.6zm0 4.282c-1.372 0-2.535.501-3.495 1.501-.958.997-1.44 2.21-1.44 3.638 0 1.404.482 2.607 1.44 3.606.458.497.99.874 1.592 1.121.605.25 1.24.376 1.903.376.662 0 1.29-.125 1.884-.376a4.764 4.764 0 0 0 1.61-1.121c.96-.998 1.44-2.202 1.44-3.606 0-1.428-.48-2.641-1.44-3.638-1.003-1-2.17-1.5-3.494-1.5zM18.604 25.62h4.13c.066.03 0-10.886 0-10.886s0-6.731-6.284-7.944c0 0-8.84-2.12-10.182 7.811l-.182 10.991h4.484V14.874s.07-3.879 3.974-3.879c0 0 4.06.02 4.06 3.728V25.62zM29.713 5.533c.377-.381.81-.684 1.303-.91a3.755 3.755 0 0 1 1.592-.34c.208-.044.386-.116.542-.206 1.016-.539 1.238-1.942.759-2.972-.021-.05-.043-.101-.066-.148a2.385 2.385 0 0 0-.185-.278 1.848 1.848 0 0 0-.196-.202A1.97 1.97 0 0 0 32.608 0a8.011 8.011 0 0 0-5.824 2.5A8.482 8.482 0 0 0 25 5.263a9.243 9.243 0 0 0-.651 3.265v.032s-.008.13 0 .335v16.641h4.112v-12.71h4.24v-1.342s.137-2.61-1.76-2.844c-.402-.125-.718-.112-.718-.112h-1.762c0-.594.113-1.147.342-1.66.228-.512.532-.957.909-1.336M0 .485S4.301.297 4.301 4.724v21.077H2.947s-2.91.187-2.91-2.137L0 .485z"/>
    </g>
</svg>
