<svg xmlns="http://www.w3.org/2000/svg" width="49" height="46" viewBox="0 0 49 46">
    <g fill="none" fill-rule="evenodd">
        <path fill="#235D7B" d="M45.831 45.965H3.07c-1.012 0-1.93-.48-2.52-1.315a3.172 3.172 0 0 1-.423-2.852l5.316-16.097a3.107 3.107 0 0 1 2.942-2.153h9.514c.442 0 .8.365.8.815 0 .45-.358.815-.8.815H8.385c-.646 0-1.218.419-1.424 1.042L1.645 42.318c-.156.472-.081.975.205 1.38.285.405.73.637 1.22.637H45.83c.49 0 .935-.232 1.22-.637.286-.405.36-.908.205-1.38L41.94 26.22a1.504 1.504 0 0 0-1.425-1.042H30.94a.808.808 0 0 1-.8-.815c0-.45.358-.815.8-.815h9.576c1.335 0 2.517.865 2.943 2.153l5.315 16.097a3.173 3.173 0 0 1-.422 2.852 3.054 3.054 0 0 1-2.52 1.315"/>
        <path fill="#235D7B" d="M24.45 1.63c-5.77 0-10.465 4.78-10.465 10.654 0 5.143 8.093 17.154 10.466 20.564 2.373-3.41 10.465-15.42 10.465-20.564 0-5.874-4.695-10.654-10.465-10.654zm0 33.432a.796.796 0 0 1-.645-.332c-.466-.647-11.421-15.92-11.421-22.446C12.384 5.511 17.797 0 24.45 0s12.067 5.51 12.067 12.284c0 6.527-10.955 21.799-11.422 22.446a.796.796 0 0 1-.645.332z"/>
        <path fill="#32C5FF" stroke="#235D7B" stroke-width="1.457" d="M24.45 19.408c-3.858 0-6.997-3.196-6.997-7.124 0-3.928 3.14-7.123 6.998-7.123s6.997 3.195 6.997 7.123c0 3.928-3.139 7.124-6.997 7.124z"/>
        <path fill="#FFF" stroke="#235D7B" stroke-linecap="round" stroke-width="1.68" d="M27.005 12.284c0 1.379-1.1 2.497-2.455 2.497-1.356 0-2.456-1.118-2.456-2.497 0-1.38 1.1-2.497 2.456-2.497 1.356 0 2.455 1.118 2.455 2.497z"/>
    </g>
</svg>
