<svg xmlns="http://www.w3.org/2000/svg" width="51" height="51" viewBox="0 0 51 51">
    <g fill="none" fill-rule="evenodd" stroke="#225D7B" stroke-linecap="round" stroke-linejoin="round" stroke-width="1.73" transform="translate(2)">
        <path d="M31.629 20.625l.064-13.918S26.014 6.194 24.92.14H8.796s.322 5.798-6 6.183v15.073S5.7 30.35 17.121 34.404l5.379-3.57"/>
        <path fill="#32C5FF" fill-rule="nonzero" d="M13.564 7.745h7.093s.964 2.963 3.74 3.605v9.083s-1.811 3.22-7.158 5.284c0 0-4.318-1.155-7.478-5.477v-8.697s3.482-2.193 3.803-3.798z"/>
        <ellipse cx="34.15" cy="28.22" rx="8.582" ry="3.423"/>
        <path d="M42.732 42.192c0 1.893-3.846 3.423-8.582 3.423-4.736 0-8.582-1.53-8.582-3.423 0-1.177-.022-14.014 0-14.036.01-.01-.225 3.252 8.721 3.51 8.625-.311 8.39-3.52 8.443-3.563.022-.022 0 12.965 0 14.089zM25.782 34.147s7.5 5.36 16.532-.054M25.782 38.405s7.5 5.36 16.532-.054M0 39.535h6.321M0 43.535h11.55"/>
    </g>
</svg>
