<svg xmlns="http://www.w3.org/2000/svg" width="15" height="18" viewBox="0 0 15 18">
    <path fill="#235D7B" fill-rule="evenodd" stroke="#235D7B" d="M13.758 16.368c0 .347-.263.632-.588.632H1.346c-.323 0-.588-.285-.588-.632 0-3.837 2.91-6.947 6.5-6.947s6.5 3.11 6.5 6.947zm-.394 0c0-3.603-2.734-6.526-6.106-6.526-3.371 0-6.106 2.923-6.106 6.526 0 .116.09.21.194.21h11.825c.106 0 .194-.094.194-.21zM7.258 9C5.192 9 3.516 7.209 3.516 5s1.676-4 3.742-4c2.067 0 3.743 1.791 3.743 4S9.325 9 7.258 9zm0-.421c1.85 0 3.349-1.602 3.349-3.579S9.108 1.421 7.258 1.421 3.91 3.023 3.91 5s1.499 3.579 3.348 3.579z"/>
</svg>
