<svg xmlns="http://www.w3.org/2000/svg" xmlns:xlink="http://www.w3.org/1999/xlink" width="51" height="51" viewBox="0 0 51 51">
    <defs>
        <path id="a" d="M.781 11.76c0 6.145 5.07 11.128 11.32 11.128 6.254 0 11.322-4.983 11.322-11.128C23.423 5.613 18.355.63 12.1.63 5.851.63.781 5.613.781 11.76z"/>
    </defs>
    <g fill="none" fill-rule="evenodd">
        <path stroke="#545F7C" stroke-width="1.919" d="M42.919 47.853c0-10.935-9.018-19.8-20.143-19.8-11.124 0-20.143 8.865-20.143 19.8H42.92z"/>
        <g transform="translate(25.5 22.205)">
            <mask id="b" fill="#fff">
                <use xlink:href="#a"/>
            </mask>
            <path fill="#32C5FF" d="M-6.98 30.517h38.165V-6.998H-6.98z" mask="url(#b)"/>
        </g>
        <path stroke="#545F7C" stroke-width="1.919" d="M48.923 33.964c0-6.145-5.068-11.128-11.321-11.128s-11.32 4.983-11.32 11.128c0 6.146 5.067 11.13 11.32 11.13s11.321-4.984 11.321-11.13z"/>
        <path fill="#545F7C" d="M38.326 37.057c.467-.037.824-.163 1.071-.38.25-.216.373-.493.373-.838v-.03c0-.315-.1-.578-.3-.788-.2-.21-.58-.396-1.144-.56v2.596zm-1.152-7.127c-.467.038-.817.168-1.051.388-.234.22-.35.487-.35.802v.029c0 .296.093.547.276.752.185.207.56.39 1.125.554V29.93zm-.06 8.561a6.898 6.898 0 0 1-1.83-.473 6.745 6.745 0 0 1-1.612-.946l.932-1.305c.42.334.833.605 1.241.81.408.205.852.347 1.329.424v-2.813c-1.071-.266-1.859-.622-2.364-1.068-.507-.443-.76-1.068-.76-1.87v-.03c0-.38.073-.733.22-1.054.146-.32.353-.599.628-.839.27-.24.595-.43.97-.574a4.58 4.58 0 0 1 1.246-.272v-.831h1.27v.86a5.788 5.788 0 0 1 1.467.374c.44.18.867.42 1.276.716l-.818 1.349c-.63-.469-1.294-.775-1.983-.919v2.726c1.11.276 1.913.647 2.413 1.112.501.462.753 1.078.753 1.843v.026c0 .394-.076.75-.226 1.068a2.544 2.544 0 0 1-.635.84c-.274.24-.598.434-.979.581a4.46 4.46 0 0 1-1.269.28v1.419h-1.269V38.49z"/>
        <path stroke="#545F7C" stroke-width="1.919" d="M32.848 14.853c0 5.468-4.51 9.9-10.072 9.9-5.563 0-10.071-4.432-10.071-9.9 0-5.467 4.508-9.9 10.071-9.9 5.562 0 10.072 4.433 10.072 9.9z"/>
    </g>
</svg>
