<svg xmlns="http://www.w3.org/2000/svg" xmlns:xlink="http://www.w3.org/1999/xlink" width="13" height="16" viewBox="0 0 13 16">
    <defs>
        <path id="a" d="M0 5.74C0 7 .508 8.837 1.904 9.25c.05.01.117.029.166.029.323 0 .508-.885.508-1.135 0-.298-.771-.932-.771-2.173 0-2.577 1.992-4.404 4.57-4.404 2.217 0 3.857 1.24 3.857 3.52 0 1.701-.693 4.894-2.94 4.894-.81 0-1.503-.577-1.503-1.404 0-1.212.86-2.385.86-3.635 0-.76-.44-1.375-1.26-1.375-1.114 0-1.797 1.231-1.797 2.202 0 .539.068 1.135.312 1.625-.449 1.904-1.367 4.74-1.367 6.702 0 .606.088 1.202.147 1.808l.087.096.137-.048c1.64-2.212 1.582-2.644 2.324-5.539.4.75 1.436 1.154 2.256 1.154 3.457 0 5.01-3.317 5.01-6.307C12.5 2.077 9.707 0 6.64 0 3.3 0 0 2.192 0 5.74z"/>
    </defs>
    <g fill="none" fill-rule="evenodd">
        <mask id="b" fill="#fff">
            <use xlink:href="#a"/>
        </mask>
        <g fill="#999" mask="url(#b)">
            <path d="M-2 0h16v16H-2z"/>
        </g>
    </g>
</svg>
