<svg xmlns="http://www.w3.org/2000/svg" width="51" height="51" viewBox="0 0 51 51">
    <g fill="none" fill-rule="evenodd">
        <path fill="#32C5FF" d="M46.046 29.769c0 11.096-8.995 20.09-20.09 20.09-11.097 0-20.092-8.994-20.092-20.09S14.86 9.678 25.955 9.678c11.096 0 20.091 8.995 20.091 20.091"/>
        <path stroke="#235D7B" stroke-width="1.729" d="M46.046 29.769c0 11.096-8.995 20.09-20.09 20.09-11.097 0-20.092-8.994-20.092-20.09S14.86 9.678 25.955 9.678c11.096 0 20.091 8.995 20.091 20.091z"/>
        <path fill="#FFF" d="M41.72 29.769c0 8.706-7.059 15.764-15.765 15.764s-15.763-7.058-15.763-15.764c0-8.707 7.057-15.764 15.763-15.764S41.72 21.062 41.72 29.769"/>
        <path stroke="#235D7B" stroke-width="1.729" d="M41.72 29.769c0 8.706-7.059 15.764-15.765 15.764s-15.763-7.058-15.763-15.764c0-8.707 7.057-15.764 15.763-15.764S41.72 21.062 41.72 29.769zM25.956 4.742v5.124M21.666 4.865h8.58"/>
        <path stroke="#235D7B" stroke-linejoin="round" stroke-width="1.729" d="M30.627 29.149l-5.6 10.212.484-7.445a.2.2 0 0 0-.067-.154.235.235 0 0 0-.153-.066h-3.448a.642.642 0 0 1-.615-.856l3.052-9.224a.684.684 0 0 1 .616-.461h3.47c.22 0 .416.11.527.264a.703.703 0 0 1 .088.593l-1.933 5.863c-.023.066 0 .132.021.198a.201.201 0 0 0 .176.088h2.812c.241 0 .438.132.57.329a.643.643 0 0 1 0 .659z"/>
    </g>
</svg>
