<svg xmlns="http://www.w3.org/2000/svg" width="51" height="51" viewBox="0 0 51 51">
    <g fill="none" fill-rule="evenodd">
        <path fill="#545F7C" stroke="#545F7C" stroke-width="1.063" d="M14.133 9.847a.953.953 0 0 0-.95.951v6.572c-3.5 2.004-6.035 5.407-6.937 9.301H3.951a.95.95 0 0 0-.951.95v4.685c0 .524.425.95.95.95H6.2a14.389 14.389 0 0 0 11.934 11.247v4.839c0 .525.426.95.951.95h4.684a.95.95 0 0 0 .95-.95v-4.67h4.658v4.67c0 .525.425.95.95.95h4.685a.95.95 0 0 0 .95-.95v-4.89a14.413 14.413 0 0 0 11.955-14.205v-.354c0-7.954-6.471-14.424-14.425-14.424H21.777c-1.73-4.065-7.16-5.528-7.403-5.591a.993.993 0 0 0-.24-.03m0 .95s5.737 1.5 6.979 5.621h12.38c7.41 0 13.473 6.064 13.473 13.474v.354c0 6.897-5.253 12.62-11.954 13.382v5.713h-4.684v-5.62h-6.559v5.62h-4.684v-5.683c-6.165-.553-11.153-5.303-12.094-11.353H3.95v-4.684h3.072c.726-4.22 3.43-7.776 7.11-9.688v-7.136"/>
        <path stroke="#545F7C" stroke-linecap="round" stroke-linejoin="round" stroke-width=".951" d="M25.98 19.718h8.672"/>
        <path fill="#32C5FF" d="M37.42 9.496a7.294 7.294 0 1 0-14.587 0 7.294 7.294 0 0 0 14.587 0"/>
        <path stroke="#545F7C" stroke-width="2.125" d="M37.42 9.496a7.294 7.294 0 1 0-14.587 0 7.294 7.294 0 0 0 14.587 0z"/>
        <g fill="#545F7C">
            <path d="M13.781 25.325a.718.718 0 1 1-1.435 0 .718.718 0 0 1 1.435 0"/>
        </g>
    </g>
</svg>
