<svg xmlns="http://www.w3.org/2000/svg" width="51" height="51" viewBox="0 0 51 51">
    <g fill="none" fill-rule="evenodd">
        <g fill-rule="nonzero" stroke="#005F7E">
            <g transform="translate(4 3)">
                <path fill="#005F7E" stroke-width=".2" d="M31.734.752c-7.479-.349-13.68 5.608-13.68 12.981 0 .26.009.51.027.77.036.565.675.887 1.17.6a.787.787 0 0 0 .378-.725c-.009-.215-.018-.43-.018-.645 0-6.459 5.409-11.69 11.952-11.44 5.913.224 10.809 5.098 11.034 10.983.252 6.513-4.995 11.897-11.493 11.897a12.26 12.26 0 0 1-1.728-.125.787.787 0 0 0-.846.456.772.772 0 0 0 .594 1.066c.648.099 1.305.162 1.971.162 7.407 0 13.392-6.173 13.041-13.617-.297-6.611-5.76-12.049-12.402-12.363z"/>
                <ellipse cx="13.131" cy="29.141" fill="#32C5FF" stroke-width="1.73" rx="12.861" ry="13.106"/>
            </g>
            <path fill="#005F7E" stroke-width=".1" d="M18.86 34.77c0-.45-.15-.83-.44-1.13-.29-.3-.78-.57-1.47-.81-1.12-.38-1.95-.85-2.51-1.39-.56-.54-.84-1.28-.84-2.21 0-.88.27-1.61.8-2.18.53-.57 1.26-.91 2.17-1.01V24.3h1.27v1.76c.9.14 1.61.53 2.12 1.17.51.64.77 1.49.77 2.55h-1.92c0-.67-.15-1.19-.44-1.58-.3-.39-.7-.58-1.22-.58-.54 0-.94.15-1.21.44-.27.29-.4.68-.4 1.17 0 .46.14.83.42 1.12.28.29.79.56 1.53.82 1.12.4 1.95.87 2.49 1.41.54.53.82 1.26.82 2.19 0 .92-.28 1.66-.83 2.2-.56.55-1.31.87-2.28.97v1.56h-1.26v-1.55c-.95-.1-1.73-.45-2.34-1.03-.61-.59-.91-1.45-.88-2.6l.02-.04h1.87c0 .76.18 1.3.55 1.62.37.32.83.49 1.38.49.59 0 1.04-.14 1.36-.43.32-.29.47-.7.47-1.19zM36.7 18.99c0-.45-.15-.83-.44-1.13-.29-.3-.78-.57-1.47-.81-1.12-.38-1.95-.85-2.51-1.39-.56-.54-.84-1.28-.84-2.21 0-.88.27-1.61.8-2.18.53-.57 1.26-.91 2.17-1.01V8.52h1.27v1.76c.9.14 1.61.53 2.12 1.17.51.64.77 1.49.77 2.55h-1.92c0-.67-.15-1.19-.44-1.58-.3-.39-.7-.58-1.22-.58-.54 0-.94.15-1.21.44-.27.29-.4.68-.4 1.17 0 .46.14.83.42 1.12.28.29.79.56 1.53.82 1.12.4 1.95.87 2.49 1.41.54.53.82 1.26.82 2.19 0 .92-.28 1.66-.83 2.2-.56.55-1.31.87-2.28.97v1.56h-1.26v-1.55c-.95-.1-1.73-.45-2.34-1.03-.61-.58-.91-1.45-.88-2.6l.02-.04h1.87c0 .76.18 1.3.55 1.62.37.32.83.49 1.38.49.59 0 1.04-.14 1.36-.43.31-.3.47-.69.47-1.19z"/>
        </g>
        <path stroke="#235D7B" stroke-linecap="square" stroke-width="1.73" d="M48.15 7L4.27 40.99"/>
    </g>
</svg>
