<svg xmlns="http://www.w3.org/2000/svg" width="51" height="51" viewBox="0 0 51 51">
    <g fill="none" fill-rule="evenodd">
        <path fill="#E4D4E4" d="M11.056 23.667A4.06 4.06 0 0 1 7 19.606v-7.79h8.111v7.79a4.059 4.059 0 0 1-4.055 4.061M19.192 23.667a4.059 4.059 0 0 1-4.055-4.061v-7.79h8.11v7.79a4.06 4.06 0 0 1-4.055 4.061M27.328 23.667a4.059 4.059 0 0 1-4.055-4.061v-7.79h8.11v7.79a4.059 4.059 0 0 1-4.055 4.061M35.463 23.667a4.059 4.059 0 0 1-4.055-4.061v-7.79h8.111v7.79a4.06 4.06 0 0 1-4.056 4.061M43.6 23.667a4.059 4.059 0 0 1-4.056-4.061v-7.79h8.11v7.79a4.059 4.059 0 0 1-4.055 4.061"/>
        <path fill="#FFF" d="M47.687 5.625v38.446c0 1.652-1.175 3.003-2.609 3.003H9.615c-1.435 0-2.608-1.351-2.608-3.003V4h40.696l-.016 1.625z"/>
        <path stroke="#235D7B" stroke-width="1.677" d="M47.687 5.625v38.446c0 1.652-1.175 3.003-2.609 3.003H9.615c-1.435 0-2.608-1.351-2.608-3.003V4h40.696l-.016 1.625z"/>
        <path fill="#32C5FF" d="M11.056 23.667A4.06 4.06 0 0 1 7 19.606v-7.79h8.111v7.79a4.059 4.059 0 0 1-4.055 4.061"/>
        <path stroke="#235D7B" stroke-width="1.677" d="M11.056 23.667A4.06 4.06 0 0 1 7 19.606v-7.79h8.111v7.79a4.059 4.059 0 0 1-4.055 4.061z"/>
        <path fill="#32C5FF" d="M19.192 23.667a4.059 4.059 0 0 1-4.055-4.061v-7.79h8.11v7.79a4.06 4.06 0 0 1-4.055 4.061"/>
        <path stroke="#235D7B" stroke-width="1.677" d="M19.192 23.667a4.059 4.059 0 0 1-4.055-4.061v-7.79h8.11v7.79a4.06 4.06 0 0 1-4.055 4.061z"/>
        <path fill="#32C5FF" d="M27.328 23.667a4.059 4.059 0 0 1-4.055-4.061v-7.79h8.11v7.79a4.059 4.059 0 0 1-4.055 4.061"/>
        <path stroke="#235D7B" stroke-width="1.677" d="M27.328 23.667a4.059 4.059 0 0 1-4.055-4.061v-7.79h8.11v7.79a4.059 4.059 0 0 1-4.055 4.061z"/>
        <path fill="#32C5FF" d="M35.463 23.667a4.059 4.059 0 0 1-4.055-4.061v-7.79h8.111v7.79a4.06 4.06 0 0 1-4.056 4.061"/>
        <path stroke="#235D7B" stroke-width="1.677" d="M35.463 23.667a4.059 4.059 0 0 1-4.055-4.061v-7.79h8.111v7.79a4.06 4.06 0 0 1-4.056 4.061z"/>
        <path fill="#32C5FF" d="M43.6 23.667a4.059 4.059 0 0 1-4.056-4.061v-7.79h8.11v7.79a4.059 4.059 0 0 1-4.055 4.061"/>
        <path stroke="#235D7B" stroke-width="1.677" d="M43.6 23.667a4.059 4.059 0 0 1-4.056-4.061v-7.79h8.11v7.79a4.059 4.059 0 0 1-4.055 4.061z"/>
        <path fill="#FFF" d="M30.483 47.077h9.528V29.98h-9.528z"/>
        <path stroke="#235D7B" stroke-width="1.677" d="M30.483 47.077h9.528V29.98h-9.528z"/>
        <path fill="#FFF" d="M12.966 41.021h11.08V29.98h-11.08z"/>
        <path stroke="#235D7B" stroke-width="1.677" d="M12.966 41.021h11.08V29.98h-11.08z"/>
    </g>
</svg>
