<svg xmlns="http://www.w3.org/2000/svg" width="51" height="51" viewBox="0 0 51 51">
    <g fill="none" fill-rule="evenodd" stroke="#235D7B">
        <path stroke-linecap="round" stroke-linejoin="round" stroke-width="1.645" d="M17.982 32.08h-.593a3.415 3.415 0 0 1-3.405-3.405V27.26a3.415 3.415 0 0 1 3.405-3.405h.593a3.415 3.415 0 0 1 3.405 3.405v1.415a3.415 3.415 0 0 1-3.405 3.406zm8.064 9.049s-.273-3.997-2.464-5.33L20.78 34.3a5.54 5.54 0 0 1-3.233 1.048 5.57 5.57 0 0 1-3.238-1.045L11.513 35.8c-2.192 1.333-2.465 5.33-2.465 5.33h16.998zm23.309-23.032H31.258l-6.58 5.758V1.645c0-.908.736-1.645 1.645-1.645h23.032C50.263 0 51 .737 51 1.645v14.807c0 .908-.737 1.645-1.645 1.645z"/>
        <path fill="#32C5FF" stroke-width=".823" d="M49.355 18.097H31.258l-6.58 5.758V1.645c0-.908.736-1.645 1.645-1.645h23.032C50.263 0 51 .737 51 1.645v14.807c0 .908-.737 1.645-1.645 1.645z"/>
        <path stroke-width="1.645" d="M31.258 6.58H44.42 31.26zM31.258 11.516h6.58-6.58z"/>
        <path stroke-linecap="square" stroke-linejoin="round" stroke-width="1.645" d="M47.71 23.032v19.742m-44.42 0V14.806a3.29 3.29 0 0 1 3.29-3.29h13.162"/>
        <path stroke-linecap="round" stroke-linejoin="round" stroke-width="1.645" d="M46.065 51H4.935A4.936 4.936 0 0 1 0 46.065h19.742v1.645h11.516v-1.645H51A4.936 4.936 0 0 1 46.065 51z"/>
    </g>
</svg>
