<svg xmlns="http://www.w3.org/2000/svg" width="51" height="51" viewBox="0 0 51 51">
    <g fill="none" fill-rule="evenodd">
        <path stroke="#235D7B" stroke-linecap="round" stroke-width="1.73" d="M17.85 42.596c6.3 5.95 14.44 6.47 21.21-.47M17.88 9.626c5.7-6.52 13.76-7.81 21.16-1.55"/>
        <path fill="#4FC3BD" d="M37.246 40.572l4.088-.456.457 4.088z"/>
        <path fill="#235D7B" d="M42.097 39.161l-7.022.783 7.806 6.238-.784-7.02zm-1.526 1.91l.13 1.155-1.286-1.027 1.156-.129z"/>
        <path fill="#4FC3BD" d="M17.09 6.195l4.546 3.632-4.09.457z"/>
        <path fill="#235D7B" d="M16 4.216l.783 7.022 7.023-.784L16 4.216zm2.182 3.957L19.466 9.2l-1.155.13-.129-1.156z"/>
        <g transform="translate(32 12)">
            <path fill="#32C5FF" fill-rule="nonzero" stroke="#235D7B" stroke-width="1.73" d="M11.73.4l.841 1.534c.139.252.416.41.71.404l1.788-.045a.765.765 0 0 1 .796.825l-.144 1.735a.76.76 0 0 0 .375.714l1.529.904a.747.747 0 0 1 .213 1.111l-1.084 1.381a.743.743 0 0 0-.081.798l.784 1.56a.758.758 0 0 1-.438 1.05l-1.679.59a.764.764 0 0 0-.507.623l-.208 1.73c-.052.449-.496.752-.952.651l-1.742-.387a.798.798 0 0 0-.779.258l-1.136 1.342a.797.797 0 0 1-1.16.05l-1.251-1.24a.785.785 0 0 0-.796-.191l-1.702.533a.78.78 0 0 1-1.004-.573l-.363-1.7a.76.76 0 0 0-.566-.58L1.45 13.03a.763.763 0 0 1-.531-1.011l.64-1.623a.757.757 0 0 0-.15-.786L.204 8.323a.751.751 0 0 1 .115-1.128L1.76 6.167a.746.746 0 0 0 .306-.74l-.3-1.713a.77.77 0 0 1 .72-.887L4.27 2.72a.778.778 0 0 0 .67-.46l.703-1.6A.793.793 0 0 1 6.745.293l1.558.848c.26.14.577.13.819-.034l1.477-.977c.386-.252.917-.129 1.13.27z"/>
            <ellipse cx="9.185" cy="8.533" fill="#FFF" fill-rule="nonzero" stroke="#235D7B" stroke-width="1.728" rx="4.156" ry="4.199"/>
            <path stroke="#225D7B" stroke-linecap="round" stroke-linejoin="round" stroke-width="1.73" d="M3.338 13.608C3.114 13.663.06 19.287 0 19.347c-.06.06 3.337.613 3.337.613l2.136 3.01 2.984-5.515M14.71 15.287c.223.055 3.154 5.144 3.213 5.204.06.06-3.547.102-3.547.102l-2.135 3.033-1.468-2.831"/>
        </g>
        <g stroke="#235D7B" stroke-width="1.73">
            <path stroke-linecap="round" d="M25.097 32.39c-3.294 1.819-7.7 2.123-11.115.779a1.269 1.269 0 0 1-.806-1.178 54.049 54.049 0 0 0-.06-2.106l-.04-5.21L12 23.846l.05-4.891c.738-3.977 12.996-3.905 13.95 0l-.043 11.98a1.67 1.67 0 0 1-.86 1.454z"/>
            <path stroke-linecap="round" stroke-linejoin="round" d="M12 24c4.22 2.844 10.188 2.483 14 0M13 28.564c3.562 1.98 8.492 2.023 13-.564M12 19.343C13.258 22.96 24.579 22.92 26 19"/>
            <path d="M13 34.02c-3.318 2.365-8.259 2.759-11.524.377-.308-.224-.476-.613-.476-1.01v-7.742c0-.471.216-.914.578-1.183 2.373-1.766 6.636-1.96 9.871-.432.942.445 1.551 1.444 1.551 2.545v7.444z"/>
            <path stroke-linecap="round" stroke-linejoin="round" d="M1 27c3.866 2.71 7.87 2.623 12 0"/>
            <path d="M1 30.4c3.866 2.71 7.87 2.623 12 0"/>
        </g>
    </g>
</svg>
