<svg xmlns="http://www.w3.org/2000/svg" xmlns:xlink="http://www.w3.org/1999/xlink" width="16" height="14" viewBox="0 0 16 14">
    <defs>
        <path id="a" d="M16 2.098a6.35 6.35 0 0 1-1.885.536A3.395 3.395 0 0 0 15.56.75a6.418 6.418 0 0 1-2.086.826A3.22 3.22 0 0 0 11.077.5C9.265.5 7.796 2.026 7.796 3.908c0 .267.028.526.084.776-2.728-.142-5.146-1.498-6.766-3.562A3.504 3.504 0 0 0 .67 2.837c0 1.182.579 2.225 1.46 2.837a3.193 3.193 0 0 1-1.488-.425v.042c0 1.651 1.132 3.03 2.635 3.341a3.15 3.15 0 0 1-1.483.06c.418 1.353 1.63 2.339 3.066 2.365A6.432 6.432 0 0 1 0 12.47 9.059 9.059 0 0 0 5.032 14c6.038 0 9.34-5.192 9.34-9.696 0-.148-.003-.297-.009-.442A6.788 6.788 0 0 0 16 2.098"/>
    </defs>
    <g fill="none" fill-rule="evenodd">
        <mask id="b" fill="#fff">
            <use xlink:href="#a"/>
        </mask>
        <g fill="#999" mask="url(#b)">
            <path d="M0-1h16v16H0z"/>
        </g>
    </g>
</svg>
